<mxfile host="app.diagrams.net" agent="Mozilla/5.0 (X11; Linux x86_64) AppleWebKit/537.36 (KHTML, like Gecko) Chrome/132.0.0.0 Safari/537.36" version="26.2.12">
  <diagram name="Page-1" id="4kv2IT0vHNOT5-9wBm8C">
    <mxGraphModel dx="1108" dy="1672" grid="1" gridSize="10" guides="1" tooltips="1" connect="1" arrows="1" fold="1" page="1" pageScale="1" pageWidth="850" pageHeight="1100" math="0" shadow="0">
      <root>
        <mxCell id="0" />
        <mxCell id="1" parent="0" />
        <mxCell id="MZ-NiFIpJrVHi2rvb3rP-10" value="Trainer" style="shape=umlActor;verticalLabelPosition=bottom;verticalAlign=top;html=1;outlineConnect=0;" vertex="1" parent="1">
          <mxGeometry x="110" y="310" width="30" height="60" as="geometry" />
        </mxCell>
        <mxCell id="MZ-NiFIpJrVHi2rvb3rP-11" value="Trainee" style="shape=umlActor;verticalLabelPosition=bottom;verticalAlign=top;html=1;outlineConnect=0;" vertex="1" parent="1">
          <mxGeometry x="130" y="-70" width="30" height="60" as="geometry" />
        </mxCell>
        <mxCell id="MZ-NiFIpJrVHi2rvb3rP-12" value="" style="swimlane;startSize=0;dashed=1;" vertex="1" parent="1">
          <mxGeometry x="220" y="-250" width="460" height="1000" as="geometry" />
        </mxCell>
        <mxCell id="MZ-NiFIpJrVHi2rvb3rP-20" value="Signup" style="ellipse;whiteSpace=wrap;html=1;" vertex="1" parent="MZ-NiFIpJrVHi2rvb3rP-12">
          <mxGeometry x="60" y="28" width="80" height="60" as="geometry" />
        </mxCell>
        <mxCell id="MZ-NiFIpJrVHi2rvb3rP-22" value="Login" style="ellipse;whiteSpace=wrap;html=1;" vertex="1" parent="MZ-NiFIpJrVHi2rvb3rP-12">
          <mxGeometry x="60" y="128" width="80" height="60" as="geometry" />
        </mxCell>
        <mxCell id="MZ-NiFIpJrVHi2rvb3rP-25" value="Forgot password" style="ellipse;whiteSpace=wrap;html=1;" vertex="1" parent="MZ-NiFIpJrVHi2rvb3rP-12">
          <mxGeometry x="230" y="40" width="80" height="60" as="geometry" />
        </mxCell>
        <mxCell id="MZ-NiFIpJrVHi2rvb3rP-27" value="&amp;lt;&amp;lt;extend&amp;gt;&amp;gt;" style="html=1;verticalAlign=bottom;labelBackgroundColor=none;endArrow=open;endFill=0;dashed=1;rounded=0;exitX=0;exitY=0.5;exitDx=0;exitDy=0;entryX=1;entryY=0.5;entryDx=0;entryDy=0;" edge="1" parent="MZ-NiFIpJrVHi2rvb3rP-12" source="MZ-NiFIpJrVHi2rvb3rP-25" target="MZ-NiFIpJrVHi2rvb3rP-22">
          <mxGeometry width="160" relative="1" as="geometry">
            <mxPoint x="170" y="78" as="sourcePoint" />
            <mxPoint x="330" y="78" as="targetPoint" />
          </mxGeometry>
        </mxCell>
        <mxCell id="MZ-NiFIpJrVHi2rvb3rP-32" value="Take Emergency Simulation Quiz" style="ellipse;whiteSpace=wrap;html=1;" vertex="1" parent="MZ-NiFIpJrVHi2rvb3rP-12">
          <mxGeometry x="60" y="208" width="80" height="60" as="geometry" />
        </mxCell>
        <mxCell id="MZ-NiFIpJrVHi2rvb3rP-41" value="Earn Achievement Badge" style="ellipse;whiteSpace=wrap;html=1;" vertex="1" parent="MZ-NiFIpJrVHi2rvb3rP-12">
          <mxGeometry x="165" y="280" width="80" height="60" as="geometry" />
        </mxCell>
        <mxCell id="MZ-NiFIpJrVHi2rvb3rP-42" value="&amp;lt;&amp;lt;extend&amp;gt;&amp;gt;" style="html=1;verticalAlign=bottom;labelBackgroundColor=none;endArrow=open;endFill=0;dashed=1;rounded=0;exitX=0;exitY=0.5;exitDx=0;exitDy=0;entryX=1;entryY=1;entryDx=0;entryDy=0;" edge="1" parent="MZ-NiFIpJrVHi2rvb3rP-12" source="MZ-NiFIpJrVHi2rvb3rP-41" target="MZ-NiFIpJrVHi2rvb3rP-32">
          <mxGeometry width="160" relative="1" as="geometry">
            <mxPoint x="195" y="188" as="sourcePoint" />
            <mxPoint x="160" y="188" as="targetPoint" />
          </mxGeometry>
        </mxCell>
        <mxCell id="MZ-NiFIpJrVHi2rvb3rP-44" value="View Earned Badges" style="ellipse;whiteSpace=wrap;html=1;" vertex="1" parent="MZ-NiFIpJrVHi2rvb3rP-12">
          <mxGeometry x="60" y="290" width="80" height="60" as="geometry" />
        </mxCell>
        <mxCell id="MZ-NiFIpJrVHi2rvb3rP-47" value="Get Personalized Training Path" style="ellipse;whiteSpace=wrap;html=1;" vertex="1" parent="MZ-NiFIpJrVHi2rvb3rP-12">
          <mxGeometry x="140" y="410" width="80" height="60" as="geometry" />
        </mxCell>
        <mxCell id="MZ-NiFIpJrVHi2rvb3rP-54" value="create emergency scenarios" style="ellipse;whiteSpace=wrap;html=1;" vertex="1" parent="MZ-NiFIpJrVHi2rvb3rP-12">
          <mxGeometry x="70" y="478" width="80" height="60" as="geometry" />
        </mxCell>
        <mxCell id="MZ-NiFIpJrVHi2rvb3rP-55" value="delete emergency scenarios" style="ellipse;whiteSpace=wrap;html=1;" vertex="1" parent="MZ-NiFIpJrVHi2rvb3rP-12">
          <mxGeometry x="70" y="538" width="80" height="60" as="geometry" />
        </mxCell>
        <mxCell id="MZ-NiFIpJrVHi2rvb3rP-56" value="update emergency scenarios" style="ellipse;whiteSpace=wrap;html=1;" vertex="1" parent="MZ-NiFIpJrVHi2rvb3rP-12">
          <mxGeometry x="70" y="598" width="80" height="60" as="geometry" />
        </mxCell>
        <mxCell id="MZ-NiFIpJrVHi2rvb3rP-57" value="view detailed reports" style="ellipse;whiteSpace=wrap;html=1;" vertex="1" parent="MZ-NiFIpJrVHi2rvb3rP-12">
          <mxGeometry x="70" y="658" width="80" height="60" as="geometry" />
        </mxCell>
        <mxCell id="MZ-NiFIpJrVHi2rvb3rP-62" value="view groups of trainees" style="ellipse;whiteSpace=wrap;html=1;" vertex="1" parent="MZ-NiFIpJrVHi2rvb3rP-12">
          <mxGeometry x="70" y="718" width="80" height="60" as="geometry" />
        </mxCell>
        <mxCell id="MZ-NiFIpJrVHi2rvb3rP-63" value="manage groups of trainees" style="ellipse;whiteSpace=wrap;html=1;" vertex="1" parent="MZ-NiFIpJrVHi2rvb3rP-12">
          <mxGeometry x="70" y="778" width="80" height="60" as="geometry" />
        </mxCell>
        <mxCell id="MZ-NiFIpJrVHi2rvb3rP-69" value="generate custom reports" style="ellipse;whiteSpace=wrap;html=1;" vertex="1" parent="MZ-NiFIpJrVHi2rvb3rP-12">
          <mxGeometry x="70" y="838" width="80" height="60" as="geometry" />
        </mxCell>
        <mxCell id="MZ-NiFIpJrVHi2rvb3rP-71" value="view report" style="ellipse;whiteSpace=wrap;html=1;" vertex="1" parent="MZ-NiFIpJrVHi2rvb3rP-12">
          <mxGeometry x="295" y="768" width="80" height="60" as="geometry" />
        </mxCell>
        <mxCell id="MZ-NiFIpJrVHi2rvb3rP-72" value="&amp;lt;&amp;lt;include&amp;gt;&amp;gt;" style="html=1;verticalAlign=bottom;labelBackgroundColor=none;endArrow=open;endFill=0;dashed=1;rounded=0;exitX=0.5;exitY=1;exitDx=0;exitDy=0;entryX=0.5;entryY=0;entryDx=0;entryDy=0;" edge="1" parent="MZ-NiFIpJrVHi2rvb3rP-12" source="MZ-NiFIpJrVHi2rvb3rP-20" target="MZ-NiFIpJrVHi2rvb3rP-22">
          <mxGeometry width="160" relative="1" as="geometry">
            <mxPoint x="90" y="98" as="sourcePoint" />
            <mxPoint x="250" y="98" as="targetPoint" />
          </mxGeometry>
        </mxCell>
        <mxCell id="MZ-NiFIpJrVHi2rvb3rP-75" value="&amp;lt;&amp;lt;include&amp;gt;&amp;gt;" style="html=1;verticalAlign=bottom;labelBackgroundColor=none;endArrow=open;endFill=0;dashed=1;rounded=0;exitX=1;exitY=0.5;exitDx=0;exitDy=0;entryX=0;entryY=0.5;entryDx=0;entryDy=0;" edge="1" parent="MZ-NiFIpJrVHi2rvb3rP-12" source="MZ-NiFIpJrVHi2rvb3rP-69" target="MZ-NiFIpJrVHi2rvb3rP-71">
          <mxGeometry width="160" relative="1" as="geometry">
            <mxPoint x="195" y="868" as="sourcePoint" />
            <mxPoint x="425" y="698" as="targetPoint" />
          </mxGeometry>
        </mxCell>
        <mxCell id="MZ-NiFIpJrVHi2rvb3rP-76" value="export report" style="ellipse;whiteSpace=wrap;html=1;" vertex="1" parent="MZ-NiFIpJrVHi2rvb3rP-12">
          <mxGeometry x="295" y="858" width="80" height="60" as="geometry" />
        </mxCell>
        <mxCell id="MZ-NiFIpJrVHi2rvb3rP-77" value="&amp;lt;&amp;lt;extend&amp;gt;&amp;gt;" style="html=1;verticalAlign=bottom;labelBackgroundColor=none;endArrow=open;endFill=0;dashed=1;rounded=0;exitX=0.5;exitY=0;exitDx=0;exitDy=0;entryX=0.5;entryY=1;entryDx=0;entryDy=0;" edge="1" parent="MZ-NiFIpJrVHi2rvb3rP-12" source="MZ-NiFIpJrVHi2rvb3rP-76" target="MZ-NiFIpJrVHi2rvb3rP-71">
          <mxGeometry width="160" relative="1" as="geometry">
            <mxPoint x="250" y="878" as="sourcePoint" />
            <mxPoint x="305" y="798" as="targetPoint" />
          </mxGeometry>
        </mxCell>
        <mxCell id="MZ-NiFIpJrVHi2rvb3rP-80" style="edgeStyle=orthogonalEdgeStyle;rounded=0;orthogonalLoop=1;jettySize=auto;html=1;entryX=1;entryY=0.5;entryDx=0;entryDy=0;endArrow=block;endFill=0;" edge="1" parent="MZ-NiFIpJrVHi2rvb3rP-12" source="MZ-NiFIpJrVHi2rvb3rP-79" target="MZ-NiFIpJrVHi2rvb3rP-76">
          <mxGeometry relative="1" as="geometry" />
        </mxCell>
        <mxCell id="MZ-NiFIpJrVHi2rvb3rP-79" value="export pdf" style="ellipse;whiteSpace=wrap;html=1;" vertex="1" parent="MZ-NiFIpJrVHi2rvb3rP-12">
          <mxGeometry x="355" y="928" width="80" height="60" as="geometry" />
        </mxCell>
        <mxCell id="MZ-NiFIpJrVHi2rvb3rP-81" style="edgeStyle=orthogonalEdgeStyle;rounded=0;orthogonalLoop=1;jettySize=auto;html=1;entryX=0;entryY=0.5;entryDx=0;entryDy=0;endArrow=block;endFill=0;" edge="1" parent="MZ-NiFIpJrVHi2rvb3rP-12" source="MZ-NiFIpJrVHi2rvb3rP-82" target="MZ-NiFIpJrVHi2rvb3rP-76">
          <mxGeometry relative="1" as="geometry">
            <mxPoint x="160" y="928" as="targetPoint" />
          </mxGeometry>
        </mxCell>
        <mxCell id="MZ-NiFIpJrVHi2rvb3rP-82" value="export csv" style="ellipse;whiteSpace=wrap;html=1;" vertex="1" parent="MZ-NiFIpJrVHi2rvb3rP-12">
          <mxGeometry x="230" y="928" width="80" height="60" as="geometry" />
        </mxCell>
        <mxCell id="MZ-NiFIpJrVHi2rvb3rP-84" value="&amp;lt;&amp;lt;include&amp;gt;&amp;gt;" style="html=1;verticalAlign=bottom;labelBackgroundColor=none;endArrow=open;endFill=0;dashed=1;rounded=0;exitX=1;exitY=0.5;exitDx=0;exitDy=0;entryX=0;entryY=0;entryDx=0;entryDy=0;" edge="1" parent="MZ-NiFIpJrVHi2rvb3rP-12" source="MZ-NiFIpJrVHi2rvb3rP-57" target="MZ-NiFIpJrVHi2rvb3rP-71">
          <mxGeometry width="160" relative="1" as="geometry">
            <mxPoint x="160" y="878" as="sourcePoint" />
            <mxPoint x="215" y="808" as="targetPoint" />
          </mxGeometry>
        </mxCell>
        <mxCell id="MZ-NiFIpJrVHi2rvb3rP-85" value="send group messages" style="ellipse;whiteSpace=wrap;html=1;" vertex="1" parent="MZ-NiFIpJrVHi2rvb3rP-12">
          <mxGeometry x="190" y="748" width="80" height="60" as="geometry" />
        </mxCell>
        <mxCell id="MZ-NiFIpJrVHi2rvb3rP-86" value="&amp;lt;&amp;lt;extend&amp;gt;&amp;gt;" style="html=1;verticalAlign=bottom;labelBackgroundColor=none;endArrow=open;endFill=0;dashed=1;rounded=0;exitX=0;exitY=0.5;exitDx=0;exitDy=0;entryX=1;entryY=0.5;entryDx=0;entryDy=0;" edge="1" parent="MZ-NiFIpJrVHi2rvb3rP-12" source="MZ-NiFIpJrVHi2rvb3rP-85" target="MZ-NiFIpJrVHi2rvb3rP-63">
          <mxGeometry width="160" relative="1" as="geometry">
            <mxPoint x="255" y="868" as="sourcePoint" />
            <mxPoint x="255" y="838" as="targetPoint" />
          </mxGeometry>
        </mxCell>
        <mxCell id="MZ-NiFIpJrVHi2rvb3rP-87" value="AI-Driven Gamified First Aid Training system" style="text;html=1;align=center;verticalAlign=middle;resizable=0;points=[];autosize=1;strokeColor=none;fillColor=none;" vertex="1" parent="MZ-NiFIpJrVHi2rvb3rP-12">
          <mxGeometry x="95" y="-2" width="260" height="30" as="geometry" />
        </mxCell>
        <mxCell id="MZ-NiFIpJrVHi2rvb3rP-88" value="Answer Evaluation" style="ellipse;whiteSpace=wrap;html=1;" vertex="1" parent="MZ-NiFIpJrVHi2rvb3rP-12">
          <mxGeometry x="270" y="208" width="80" height="60" as="geometry" />
        </mxCell>
        <mxCell id="MZ-NiFIpJrVHi2rvb3rP-89" value="&amp;lt;&amp;lt;include&amp;gt;&amp;gt;" style="html=1;verticalAlign=bottom;labelBackgroundColor=none;endArrow=open;endFill=0;dashed=1;rounded=0;exitX=1;exitY=0.5;exitDx=0;exitDy=0;entryX=0;entryY=0.5;entryDx=0;entryDy=0;" edge="1" parent="MZ-NiFIpJrVHi2rvb3rP-12" source="MZ-NiFIpJrVHi2rvb3rP-32" target="MZ-NiFIpJrVHi2rvb3rP-88">
          <mxGeometry width="160" relative="1" as="geometry">
            <mxPoint x="160" y="698" as="sourcePoint" />
            <mxPoint x="310" y="310" as="targetPoint" />
          </mxGeometry>
        </mxCell>
        <mxCell id="MZ-NiFIpJrVHi2rvb3rP-90" value="Quiz Generation" style="ellipse;whiteSpace=wrap;html=1;" vertex="1" parent="MZ-NiFIpJrVHi2rvb3rP-12">
          <mxGeometry x="270" y="148" width="80" height="60" as="geometry" />
        </mxCell>
        <mxCell id="MZ-NiFIpJrVHi2rvb3rP-91" value="&amp;lt;&amp;lt;include&amp;gt;&amp;gt;" style="html=1;verticalAlign=bottom;labelBackgroundColor=none;endArrow=open;endFill=0;dashed=1;rounded=0;exitX=1;exitY=0.5;exitDx=0;exitDy=0;entryX=0;entryY=0.5;entryDx=0;entryDy=0;" edge="1" parent="MZ-NiFIpJrVHi2rvb3rP-12" source="MZ-NiFIpJrVHi2rvb3rP-32" target="MZ-NiFIpJrVHi2rvb3rP-90">
          <mxGeometry width="160" relative="1" as="geometry">
            <mxPoint x="150" y="208" as="sourcePoint" />
            <mxPoint x="270" y="208" as="targetPoint" />
          </mxGeometry>
        </mxCell>
        <mxCell id="MZ-NiFIpJrVHi2rvb3rP-93" value="Evaluate performance" style="ellipse;whiteSpace=wrap;html=1;" vertex="1" parent="MZ-NiFIpJrVHi2rvb3rP-12">
          <mxGeometry x="270" y="280" width="80" height="60" as="geometry" />
        </mxCell>
        <mxCell id="MZ-NiFIpJrVHi2rvb3rP-96" value="&amp;lt;&amp;lt;include&amp;gt;&amp;gt;" style="html=1;verticalAlign=bottom;labelBackgroundColor=none;endArrow=open;endFill=0;dashed=1;rounded=0;exitX=1;exitY=0.5;exitDx=0;exitDy=0;entryX=0;entryY=0.5;entryDx=0;entryDy=0;" edge="1" parent="MZ-NiFIpJrVHi2rvb3rP-12" source="MZ-NiFIpJrVHi2rvb3rP-41" target="MZ-NiFIpJrVHi2rvb3rP-93">
          <mxGeometry width="160" relative="1" as="geometry">
            <mxPoint x="160" y="248" as="sourcePoint" />
            <mxPoint x="280" y="248" as="targetPoint" />
          </mxGeometry>
        </mxCell>
        <mxCell id="MZ-NiFIpJrVHi2rvb3rP-18" value="" style="fontColor=#0066CC;verticalAlign=top;verticalLabelPosition=bottom;labelPosition=center;align=center;html=1;outlineConnect=0;fillColor=#CCCCCC;strokeColor=#6881B3;gradientColor=none;gradientDirection=north;strokeWidth=2;shape=mxgraph.networks.server;" vertex="1" parent="1">
          <mxGeometry x="730" y="-100" width="60" height="60" as="geometry" />
        </mxCell>
        <mxCell id="MZ-NiFIpJrVHi2rvb3rP-19" value="AI server" style="text;html=1;align=center;verticalAlign=middle;whiteSpace=wrap;rounded=0;" vertex="1" parent="1">
          <mxGeometry x="730" y="-50" width="60" height="30" as="geometry" />
        </mxCell>
        <mxCell id="MZ-NiFIpJrVHi2rvb3rP-29" value="" style="endArrow=none;html=1;rounded=0;entryX=0;entryY=1;entryDx=0;entryDy=0;exitX=0.5;exitY=0.5;exitDx=0;exitDy=0;exitPerimeter=0;startFill=0;" edge="1" parent="1" source="MZ-NiFIpJrVHi2rvb3rP-11" target="MZ-NiFIpJrVHi2rvb3rP-20">
          <mxGeometry width="50" height="50" relative="1" as="geometry">
            <mxPoint x="260" y="-20" as="sourcePoint" />
            <mxPoint x="310" y="-70" as="targetPoint" />
          </mxGeometry>
        </mxCell>
        <mxCell id="MZ-NiFIpJrVHi2rvb3rP-31" value="" style="endArrow=none;html=1;rounded=0;entryX=0;entryY=0.5;entryDx=0;entryDy=0;exitX=0.5;exitY=0.5;exitDx=0;exitDy=0;exitPerimeter=0;startFill=0;" edge="1" parent="1" source="MZ-NiFIpJrVHi2rvb3rP-11" target="MZ-NiFIpJrVHi2rvb3rP-22">
          <mxGeometry width="50" height="50" relative="1" as="geometry">
            <mxPoint x="200" y="5" as="sourcePoint" />
            <mxPoint x="429" y="-90" as="targetPoint" />
          </mxGeometry>
        </mxCell>
        <mxCell id="MZ-NiFIpJrVHi2rvb3rP-34" value="" style="endArrow=none;html=1;rounded=0;exitX=0.5;exitY=0.5;exitDx=0;exitDy=0;exitPerimeter=0;entryX=0;entryY=0.5;entryDx=0;entryDy=0;startFill=0;" edge="1" parent="1" source="MZ-NiFIpJrVHi2rvb3rP-11" target="MZ-NiFIpJrVHi2rvb3rP-32">
          <mxGeometry width="50" height="50" relative="1" as="geometry">
            <mxPoint x="210" y="50" as="sourcePoint" />
            <mxPoint x="260" as="targetPoint" />
          </mxGeometry>
        </mxCell>
        <mxCell id="MZ-NiFIpJrVHi2rvb3rP-37" value="" style="endArrow=none;html=1;rounded=0;exitX=1;exitY=0.5;exitDx=0;exitDy=0;entryX=0;entryY=0.5;entryDx=0;entryDy=0;entryPerimeter=0;" edge="1" parent="1" source="MZ-NiFIpJrVHi2rvb3rP-88" target="MZ-NiFIpJrVHi2rvb3rP-18">
          <mxGeometry width="50" height="50" relative="1" as="geometry">
            <mxPoint x="388" y="-81" as="sourcePoint" />
            <mxPoint x="730" y="-120" as="targetPoint" />
          </mxGeometry>
        </mxCell>
        <mxCell id="MZ-NiFIpJrVHi2rvb3rP-45" value="" style="endArrow=none;html=1;rounded=0;exitX=0.5;exitY=0.5;exitDx=0;exitDy=0;exitPerimeter=0;entryX=0;entryY=0.5;entryDx=0;entryDy=0;startFill=0;" edge="1" parent="1" source="MZ-NiFIpJrVHi2rvb3rP-11" target="MZ-NiFIpJrVHi2rvb3rP-44">
          <mxGeometry width="50" height="50" relative="1" as="geometry">
            <mxPoint x="155" y="-30" as="sourcePoint" />
            <mxPoint x="310" y="10" as="targetPoint" />
          </mxGeometry>
        </mxCell>
        <mxCell id="MZ-NiFIpJrVHi2rvb3rP-48" value="" style="endArrow=none;html=1;rounded=0;exitX=0.5;exitY=0.5;exitDx=0;exitDy=0;exitPerimeter=0;entryX=0;entryY=0.5;entryDx=0;entryDy=0;startFill=0;" edge="1" parent="1" source="MZ-NiFIpJrVHi2rvb3rP-11" target="MZ-NiFIpJrVHi2rvb3rP-47">
          <mxGeometry width="50" height="50" relative="1" as="geometry">
            <mxPoint x="155" y="-30" as="sourcePoint" />
            <mxPoint x="310" y="130" as="targetPoint" />
          </mxGeometry>
        </mxCell>
        <mxCell id="MZ-NiFIpJrVHi2rvb3rP-58" value="" style="endArrow=none;html=1;rounded=0;exitX=0.5;exitY=0.5;exitDx=0;exitDy=0;exitPerimeter=0;entryX=0;entryY=0.5;entryDx=0;entryDy=0;startFill=0;" edge="1" parent="1" source="MZ-NiFIpJrVHi2rvb3rP-10" target="MZ-NiFIpJrVHi2rvb3rP-54">
          <mxGeometry width="50" height="50" relative="1" as="geometry">
            <mxPoint x="155" y="-30" as="sourcePoint" />
            <mxPoint x="310" y="180" as="targetPoint" />
          </mxGeometry>
        </mxCell>
        <mxCell id="MZ-NiFIpJrVHi2rvb3rP-59" value="" style="endArrow=none;html=1;rounded=0;entryX=0;entryY=0.5;entryDx=0;entryDy=0;startFill=0;exitX=0.5;exitY=0.5;exitDx=0;exitDy=0;exitPerimeter=0;" edge="1" parent="1" source="MZ-NiFIpJrVHi2rvb3rP-10" target="MZ-NiFIpJrVHi2rvb3rP-56">
          <mxGeometry width="50" height="50" relative="1" as="geometry">
            <mxPoint x="135" y="350" as="sourcePoint" />
            <mxPoint x="310" y="300" as="targetPoint" />
          </mxGeometry>
        </mxCell>
        <mxCell id="MZ-NiFIpJrVHi2rvb3rP-60" value="" style="endArrow=none;html=1;rounded=0;exitX=0.5;exitY=0.5;exitDx=0;exitDy=0;exitPerimeter=0;entryX=0;entryY=0.5;entryDx=0;entryDy=0;startFill=0;" edge="1" parent="1" source="MZ-NiFIpJrVHi2rvb3rP-10" target="MZ-NiFIpJrVHi2rvb3rP-55">
          <mxGeometry width="50" height="50" relative="1" as="geometry">
            <mxPoint x="145" y="360" as="sourcePoint" />
            <mxPoint x="320" y="310" as="targetPoint" />
          </mxGeometry>
        </mxCell>
        <mxCell id="MZ-NiFIpJrVHi2rvb3rP-61" value="" style="endArrow=none;html=1;rounded=0;entryX=0;entryY=0.5;entryDx=0;entryDy=0;startFill=0;exitX=0.5;exitY=0.5;exitDx=0;exitDy=0;exitPerimeter=0;" edge="1" parent="1" source="MZ-NiFIpJrVHi2rvb3rP-10" target="MZ-NiFIpJrVHi2rvb3rP-57">
          <mxGeometry width="50" height="50" relative="1" as="geometry">
            <mxPoint x="155" y="370" as="sourcePoint" />
            <mxPoint x="330" y="320" as="targetPoint" />
          </mxGeometry>
        </mxCell>
        <mxCell id="MZ-NiFIpJrVHi2rvb3rP-67" value="" style="endArrow=none;html=1;rounded=0;entryX=0;entryY=0.5;entryDx=0;entryDy=0;startFill=0;exitX=0.5;exitY=0.5;exitDx=0;exitDy=0;exitPerimeter=0;" edge="1" parent="1" source="MZ-NiFIpJrVHi2rvb3rP-10" target="MZ-NiFIpJrVHi2rvb3rP-62">
          <mxGeometry width="50" height="50" relative="1" as="geometry">
            <mxPoint x="135" y="350" as="sourcePoint" />
            <mxPoint x="300" y="480" as="targetPoint" />
          </mxGeometry>
        </mxCell>
        <mxCell id="MZ-NiFIpJrVHi2rvb3rP-68" value="" style="endArrow=none;html=1;rounded=0;entryX=0;entryY=0.5;entryDx=0;entryDy=0;startFill=0;exitX=0.5;exitY=0.5;exitDx=0;exitDy=0;exitPerimeter=0;" edge="1" parent="1" source="MZ-NiFIpJrVHi2rvb3rP-10" target="MZ-NiFIpJrVHi2rvb3rP-63">
          <mxGeometry width="50" height="50" relative="1" as="geometry">
            <mxPoint x="145" y="360" as="sourcePoint" />
            <mxPoint x="310" y="490" as="targetPoint" />
          </mxGeometry>
        </mxCell>
        <mxCell id="MZ-NiFIpJrVHi2rvb3rP-70" value="" style="endArrow=none;html=1;rounded=0;entryX=0;entryY=0.5;entryDx=0;entryDy=0;startFill=0;exitX=0.5;exitY=0.5;exitDx=0;exitDy=0;exitPerimeter=0;" edge="1" parent="1" source="MZ-NiFIpJrVHi2rvb3rP-10" target="MZ-NiFIpJrVHi2rvb3rP-69">
          <mxGeometry width="50" height="50" relative="1" as="geometry">
            <mxPoint x="125" y="390" as="sourcePoint" />
            <mxPoint x="290" y="640" as="targetPoint" />
          </mxGeometry>
        </mxCell>
        <mxCell id="MZ-NiFIpJrVHi2rvb3rP-92" value="" style="endArrow=none;html=1;rounded=0;exitX=1;exitY=0.5;exitDx=0;exitDy=0;entryX=0;entryY=0.5;entryDx=0;entryDy=0;entryPerimeter=0;" edge="1" parent="1" source="MZ-NiFIpJrVHi2rvb3rP-90" target="MZ-NiFIpJrVHi2rvb3rP-18">
          <mxGeometry width="50" height="50" relative="1" as="geometry">
            <mxPoint x="580" y="-2" as="sourcePoint" />
            <mxPoint x="740" y="-60" as="targetPoint" />
          </mxGeometry>
        </mxCell>
        <mxCell id="MZ-NiFIpJrVHi2rvb3rP-46" value="" style="endArrow=none;html=1;rounded=0;exitX=1;exitY=0.5;exitDx=0;exitDy=0;entryX=0;entryY=0.5;entryDx=0;entryDy=0;entryPerimeter=0;" edge="1" parent="1" source="MZ-NiFIpJrVHi2rvb3rP-93" target="MZ-NiFIpJrVHi2rvb3rP-18">
          <mxGeometry width="50" height="50" relative="1" as="geometry">
            <mxPoint x="550" y="120" as="sourcePoint" />
            <mxPoint x="815" y="-10" as="targetPoint" />
          </mxGeometry>
        </mxCell>
        <mxCell id="MZ-NiFIpJrVHi2rvb3rP-97" value="" style="endArrow=none;html=1;rounded=0;exitX=1;exitY=0.5;exitDx=0;exitDy=0;entryX=0;entryY=0.5;entryDx=0;entryDy=0;entryPerimeter=0;" edge="1" parent="1" source="MZ-NiFIpJrVHi2rvb3rP-47" target="MZ-NiFIpJrVHi2rvb3rP-18">
          <mxGeometry width="50" height="50" relative="1" as="geometry">
            <mxPoint x="580" y="70" as="sourcePoint" />
            <mxPoint x="740" y="-60" as="targetPoint" />
          </mxGeometry>
        </mxCell>
      </root>
    </mxGraphModel>
  </diagram>
</mxfile>
